<?xml version="1.0" encoding="UTF-8" standalone="no"?>
<svg width="800px" height="500px" viewBox="0 0 800 500" version="1.1" xmlns="http://www.w3.org/2000/svg" xmlns:xlink="http://www.w3.org/1999/xlink">
    <g stroke="none" stroke-width="1" fill="none" fill-rule="evenodd">
        <rect fill="#F3F4F6" x="0" y="0" width="800" height="500"></rect>
        <g transform="translate(250.000000, 187.000000)" fill="#9CA3AF">
            <path d="M150,0 C150,0 200,50 250,50 C300,50 300,0 350,0 C400,0 400,50 450,50 C500,50 550,0 550,0 L550,125 L0,125 L0,0 C0,0 50,50 100,50 C150,50 150,0 150,0 Z" opacity="0.2"></path>
            <rect x="0" y="0" width="100" height="20" rx="10" opacity="0.5"></rect>
            <rect x="120" y="0" width="280" height="20" rx="10" opacity="0.3"></rect>
            <rect x="120" y="40" width="200" height="15" rx="7.5" opacity="0.2"></rect>
            <rect x="120" y="70" width="240" height="15" rx="7.5" opacity="0.2"></rect>
            <polygon points="0 125 300 125 300 65" opacity="0.2"></polygon>
        </g>
        <text font-family="Arial" font-size="16" font-weight="normal" fill="#6B7280" text-anchor="middle" x="400" y="250">
            Screenshot Placeholder
        </text>
    </g>
</svg>