<?xml version="1.0" encoding="UTF-8" standalone="no"?>
<svg width="800px" height="500px" viewBox="0 0 800 500" version="1.1" xmlns="http://www.w3.org/2000/svg" xmlns:xlink="http://www.w3.org/1999/xlink">
    <defs>
        <linearGradient x1="0%" y1="0%" x2="100%" y2="100%" id="linearGradient-1">
            <stop stop-color="#14B8A6" offset="0%"></stop>
            <stop stop-color="#0D9488" offset="100%"></stop>
        </linearGradient>
        <linearGradient x1="0%" y1="0%" x2="100%" y2="100%" id="linearGradient-2">
            <stop stop-color="#6366F1" offset="0%"></stop>
            <stop stop-color="#4F46E5" offset="100%"></stop>
        </linearGradient>
        <linearGradient x1="0%" y1="0%" x2="100%" y2="100%" id="linearGradient-3">
            <stop stop-color="#F97316" offset="0%"></stop>
            <stop stop-color="#EA580C" offset="100%"></stop>
        </linearGradient>
        <linearGradient x1="0%" y1="0%" x2="100%" y2="100%" id="linearGradient-4">
            <stop stop-color="#EC4899" offset="0%"></stop>
            <stop stop-color="#DB2777" offset="100%"></stop>
        </linearGradient>
    </defs>
    <g stroke="none" stroke-width="1" fill="none" fill-rule="evenodd">
        <rect fill="#F9FAFB" x="0" y="0" width="800" height="500"></rect>
        
        <!-- Left Sidebar -->
        <rect fill="#1E293B" x="0" y="0" width="200" height="500"></rect>
        
        <!-- Logo/Title -->
        <text font-family="Arial" font-size="22" font-weight="bold" fill="#FFFFFF" x="30" y="38">
            BI Dashboard
        </text>
        
        <!-- Navigation -->
        <rect fill="#334155" x="20" y="60" width="160" height="40" rx="6"></rect>
        <text font-family="Arial" font-size="14" font-weight="bold" fill="#FFFFFF" x="55" y="85">
            Dashboard
        </text>
        
        <text font-family="Arial" font-size="14" font-weight="normal" fill="#94A3B8" x="55" y="135">
            Reports
        </text>
        
        <text font-family="Arial" font-size="14" font-weight="normal" fill="#94A3B8" x="55" y="175">
            Analytics
        </text>
        
        <text font-family="Arial" font-size="14" font-weight="normal" fill="#94A3B8" x="55" y="215">
            Data Sources
        </text>
        
        <text font-family="Arial" font-size="14" font-weight="normal" fill="#94A3B8" x="55" y="255">
            Team
        </text>
        
        <line x1="20" y1="290" x2="180" y2="290" stroke="#334155" stroke-width="1"></line>
        
        <text font-family="Arial" font-size="14" font-weight="normal" fill="#94A3B8" x="55" y="335">
            Settings
        </text>
        
        <text font-family="Arial" font-size="14" font-weight="normal" fill="#94A3B8" x="55" y="375">
            Help
        </text>
        
        <text font-family="Arial" font-size="14" font-weight="normal" fill="#94A3B8" x="55" y="455">
            Logout
        </text>
        
        <!-- Main Content -->
        <!-- Top Header Stats -->
        <text font-family="Arial" font-size="20" font-weight="bold" fill="#111827" x="230" y="40">
            Business Intelligence Dashboard
        </text>
        
        <!-- First row of stats cards -->
        <rect fill="#FFFFFF" x="230" y="60" width="170" height="90" rx="6" stroke="#E5E7EB" stroke-width="1"></rect>
        <text font-family="Arial" font-size="12" font-weight="normal" fill="#6B7280" x="245" y="85">
            Total Revenue
        </text>
        <text font-family="Arial" font-size="22" font-weight="bold" fill="#111827" x="245" y="115">
            $843,294
        </text>
        <text font-family="Arial" font-size="12" font-weight="normal" fill="#10B981" x="245" y="135">
            ↑ 12.4% vs last month
        </text>
        
        <rect fill="#FFFFFF" x="416" y="60" width="170" height="90" rx="6" stroke="#E5E7EB" stroke-width="1"></rect>
        <text font-family="Arial" font-size="12" font-weight="normal" fill="#6B7280" x="431" y="85">
            New Customers
        </text>
        <text font-family="Arial" font-size="22" font-weight="bold" fill="#111827" x="431" y="115">
            1,294
        </text>
        <text font-family="Arial" font-size="12" font-weight="normal" fill="#10B981" x="431" y="135">
            ↑ 8.3% vs last month
        </text>
        
        <rect fill="#FFFFFF" x="602" y="60" width="170" height="90" rx="6" stroke="#E5E7EB" stroke-width="1"></rect>
        <text font-family="Arial" font-size="12" font-weight="normal" fill="#6B7280" x="617" y="85">
            Active Users
        </text>
        <text font-family="Arial" font-size="22" font-weight="bold" fill="#111827" x="617" y="115">
            42,583
        </text>
        <text font-family="Arial" font-size="12" font-weight="normal" fill="#EF4444" x="617" y="135">
            ↓ 3.2% vs last month
        </text>
        
        <!-- Revenue Chart -->
        <rect fill="#FFFFFF" x="230" y="165" width="340" height="220" rx="6" stroke="#E5E7EB" stroke-width="1"></rect>
        <text font-family="Arial" font-size="14" font-weight="bold" fill="#111827" x="245" y="190">
            Revenue Trends
        </text>
        
        <!-- Y-axis labels -->
        <text font-family="Arial" font-size="10" font-weight="normal" fill="#6B7280" x="245" y="220">
            $100k
        </text>
        <text font-family="Arial" font-size="10" font-weight="normal" fill="#6B7280" x="245" y="270">
            $50k
        </text>
        <text font-family="Arial" font-size="10" font-weight="normal" fill="#6B7280" x="245" y="320">
            $0
        </text>
        
        <!-- Chart background grid -->
        <line x1="280" y1="220" x2="550" y2="220" stroke="#E5E7EB" stroke-width="1" stroke-dasharray="2,2"></line>
        <line x1="280" y1="270" x2="550" y2="270" stroke="#E5E7EB" stroke-width="1" stroke-dasharray="2,2"></line>
        <line x1="280" y1="320" x2="550" y2="320" stroke="#E5E7EB" stroke-width="1"></line>
        
        <!-- X-axis labels -->
        <text font-family="Arial" font-size="10" font-weight="normal" fill="#6B7280" x="280" y="340">
            Jan
        </text>
        <text font-family="Arial" font-size="10" font-weight="normal" fill="#6B7280" x="325" y="340">
            Feb
        </text>
        <text font-family="Arial" font-size="10" font-weight="normal" fill="#6B7280" x="370" y="340">
            Mar
        </text>
        <text font-family="Arial" font-size="10" font-weight="normal" fill="#6B7280" x="415" y="340">
            Apr
        </text>
        <text font-family="Arial" font-size="10" font-weight="normal" fill="#6B7280" x="460" y="340">
            May
        </text>
        <text font-family="Arial" font-size="10" font-weight="normal" fill="#6B7280" x="505" y="340">
            Jun
        </text>
        
        <!-- Line chart -->
        <polyline fill="none" stroke="#6366F1" stroke-width="2" points="
            280,300 
            325,280 
            370,310 
            415,260 
            460,230 
            505,210
        "></polyline>
        
        <!-- Data points -->
        <circle cx="280" cy="300" r="4" fill="#FFFFFF" stroke="#6366F1" stroke-width="2"></circle>
        <circle cx="325" cy="280" r="4" fill="#FFFFFF" stroke="#6366F1" stroke-width="2"></circle>
        <circle cx="370" cy="310" r="4" fill="#FFFFFF" stroke="#6366F1" stroke-width="2"></circle>
        <circle cx="415" cy="260" r="4" fill="#FFFFFF" stroke="#6366F1" stroke-width="2"></circle>
        <circle cx="460" cy="230" r="4" fill="#FFFFFF" stroke="#6366F1" stroke-width="2"></circle>
        <circle cx="505" cy="210" r="4" fill="#FFFFFF" stroke="#6366F1" stroke-width="2"></circle>
        
        <!-- Area chart -->
        <path fill="rgba(99, 102, 241, 0.1)" d="
            M280,320 
            L280,300 
            L325,280 
            L370,310 
            L415,260 
            L460,230 
            L505,210 
            L505,320 
            Z
        "></path>
        
        <!-- User Demographics Donut Chart -->
        <rect fill="#FFFFFF" x="585" y="165" width="185" height="220" rx="6" stroke="#E5E7EB" stroke-width="1"></rect>
        <text font-family="Arial" font-size="14" font-weight="bold" fill="#111827" x="600" y="190">
            User Demographics
        </text>
        
        <!-- Donut Chart -->
        <circle cx="677" cy="265" r="60" fill="#FFFFFF"></circle>
        
        <!-- Donut Segments -->
        <path d="M677,265 L677,205 A60,60 0 0,1 731,250 Z" fill="url(#linearGradient-1)"></path>
        <path d="M677,265 L731,250 A60,60 0 0,1 707,311 Z" fill="url(#linearGradient-2)"></path>
        <path d="M677,265 L707,311 A60,60 0 0,1 635,315 Z" fill="url(#linearGradient-3)"></path>
        <path d="M677,265 L635,315 A60,60 0 0,1 624,228 Z" fill="url(#linearGradient-4)"></path>
        <path d="M677,265 L624,228 A60,60 0 0,1 677,205 Z" fill="#A3A3A3"></path>
        
        <!-- Center white circle to create donut -->
        <circle cx="677" cy="265" r="40" fill="#FFFFFF"></circle>
        
        <!-- Legend -->
        <rect x="600" y="340" width="10" height="10" rx="2" fill="url(#linearGradient-1)"></rect>
        <text font-family="Arial" font-size="12" font-weight="normal" fill="#6B7280" x="615" y="349">
            North America (35%)
        </text>
        
        <rect x="600" y="360" width="10" height="10" rx="2" fill="url(#linearGradient-2)"></rect>
        <text font-family="Arial" font-size="12" font-weight="normal" fill="#6B7280" x="615" y="369">
            Europe (25%)
        </text>
        
        <rect x="600" y="380" width="10" height="10" rx="2" fill="url(#linearGradient-3)"></rect>
        <text font-family="Arial" font-size="12" font-weight="normal" fill="#6B7280" x="615" y="389">
            Asia (20%)
        </text>
        
        <!-- Bottom Row -->
        <!-- Top Products -->
        <rect fill="#FFFFFF" x="230" y="400" width="340" height="85" rx="6" stroke="#E5E7EB" stroke-width="1"></rect>
        <text font-family="Arial" font-size="14" font-weight="bold" fill="#111827" x="245" y="425">
            Top Products
        </text>
        
        <text font-family="Arial" font-size="12" font-weight="normal" fill="#6B7280" x="245" y="450">
            1. Business Analytics Suite - $324,120
        </text>
        <text font-family="Arial" font-size="12" font-weight="normal" fill="#6B7280" x="245" y="470">
            2. Data Visualization Pro - $218,940
        </text>
        
        <!-- Alerts -->
        <rect fill="#FFFFFF" x="585" y="400" width="185" height="85" rx="6" stroke="#E5E7EB" stroke-width="1"></rect>
        <text font-family="Arial" font-size="14" font-weight="bold" fill="#111827" x="600" y="425">
            Recent Alerts
        </text>
        
        <rect fill="#FEF2F2" x="600" y="435" width="160" height="18" rx="3"></rect>
        <text font-family="Arial" font-size="10" font-weight="normal" fill="#EF4444" x="605" y="448">
            Server load exceeding threshold
        </text>
        
        <rect fill="#ECFDF5" x="600" y="458" width="160" height="18" rx="3"></rect>
        <text font-family="Arial" font-size="10" font-weight="normal" fill="#10B981" x="605" y="471">
            Payment processing restored
        </text>
    </g>
</svg>