<?xml version="1.0" encoding="UTF-8" standalone="no"?>
<svg width="800" height="500" viewBox="0 0 800 500" xmlns="http://www.w3.org/2000/svg">
  <rect width="800" height="500" fill="#fdf2f8" />
  
  <!-- Header -->
  <rect width="800" height="80" fill="#be185d" />
  <text x="40" y="50" font-family="Arial" font-size="28" font-weight="bold" fill="white">Elegance Beauty Salon</text>
  
  <!-- Navigation -->
  <text x="400" y="50" font-family="Arial" font-size="16" fill="white">Home</text>
  <text x="470" y="50" font-family="Arial" font-size="16" fill="white">Services</text>
  <text x="555" y="50" font-family="Arial" font-size="16" font-weight="bold" fill="#fdf2f8">Treatments</text>
  <text x="650" y="50" font-family="Arial" font-size="16" fill="white">Gallery</text>
  <text x="720" y="50" font-family="Arial" font-size="16" fill="white">Contact</text>
  
  <!-- Page Title -->
  <text x="400" y="120" font-family="Arial" font-size="30" font-weight="bold" fill="#be185d" text-anchor="middle">Luxurious Treatments</text>
  <text x="400" y="150" font-family="Arial" font-size="16" fill="#64748b" text-anchor="middle">Indulge in our premium services and transform your look</text>
  
  <!-- Treatment Cards -->
  <!-- Card 1 -->
  <rect x="40" y="180" width="350" height="300" rx="10" fill="white" stroke="#f9a8d4" stroke-width="1" />
  <rect x="40" y="180" width="350" height="150" rx="10" fill="#fbcfe8" />
  <text x="60" y="350" font-family="Arial" font-size="22" font-weight="bold" fill="#be185d">Deluxe Facial Treatment</text>
  <text x="60" y="380" font-family="Arial" font-size="14" fill="#64748b">A comprehensive facial that includes deep</text>
  <text x="60" y="400" font-family="Arial" font-size="14" fill="#64748b">cleansing, exfoliation, extraction, and</text>
  <text x="60" y="420" font-family="Arial" font-size="14" fill="#64748b">specialized masks for radiant skin.</text>
  <text x="60" y="450" font-family="Arial" font-size="18" font-weight="bold" fill="#be185d">$120</text>
  <rect x="260" y="440" width="110" height="30" rx="15" fill="#be185d" />
  <text x="315" y="460" font-family="Arial" font-size="14" fill="white" text-anchor="middle">Book Now</text>
  
  <!-- Card 2 -->
  <rect x="410" y="180" width="350" height="300" rx="10" fill="white" stroke="#f9a8d4" stroke-width="1" />
  <rect x="410" y="180" width="350" height="150" rx="10" fill="#ddd6fe" />
  <text x="430" y="350" font-family="Arial" font-size="22" font-weight="bold" fill="#7e22ce">Aromatherapy Massage</text>
  <text x="430" y="380" font-family="Arial" font-size="14" fill="#64748b">Experience total relaxation with our</text>
  <text x="430" y="400" font-family="Arial" font-size="14" fill="#64748b">signature essential oil blends and expert</text>
  <text x="430" y="420" font-family="Arial" font-size="14" fill="#64748b">massage techniques for mind and body.</text>
  <text x="430" y="450" font-family="Arial" font-size="18" font-weight="bold" fill="#7e22ce">$150</text>
  <rect x="630" y="440" width="110" height="30" rx="15" fill="#7e22ce" />
  <text x="685" y="460" font-family="Arial" font-size="14" fill="white" text-anchor="middle">Book Now</text>
  
  <!-- Facial Icons -->
  <circle cx="60" cy="200" r="20" fill="#db2777" />
  <circle cx="60" cy="200" r="10" fill="#fdf2f8" />
  <circle cx="60" cy="200" r="5" fill="#db2777" />
  
  <circle cx="100" cy="200" r="20" fill="#db2777" />
  <rect x="90" cy="195" width="20" height="10" fill="#fdf2f8" />
  
  <circle cx="140" cy="200" r="20" fill="#db2777" />
  <text x="140" y="205" font-family="Arial" font-size="14" font-weight="bold" fill="#fdf2f8" text-anchor="middle">SP</text>
  
  <!-- Massage Icons -->
  <circle cx="430" cy="200" r="20" fill="#7e22ce" />
  <line x1="420" y1="200" x2="440" y2="200" stroke="#fdf2f8" stroke-width="2" />
  <line x1="422" y1="195" x2="438" y2="195" stroke="#fdf2f8" stroke-width="2" />
  <line x1="425" y1="205" x2="435" y2="205" stroke="#fdf2f8" stroke-width="2" />
  
  <circle cx="470" cy="200" r="20" fill="#7e22ce" />
  <path d="M 465,193 C 475,193 475,207 465,207" fill="none" stroke="#fdf2f8" stroke-width="2" />
  
  <circle cx="510" cy="200" r="20" fill="#7e22ce" />
  <text x="510" y="205" font-family="Arial" font-size="14" font-weight="bold" fill="#fdf2f8" text-anchor="middle">AR</text>
</svg>