<?xml version="1.0" encoding="UTF-8" standalone="no"?>
<svg width="800" height="500" viewBox="0 0 800 500" xmlns="http://www.w3.org/2000/svg">
  <rect width="800" height="500" fill="#f8fafc" />
  
  <!-- Header -->
  <rect width="800" height="60" fill="#4f46e5" />
  <text x="30" y="38" font-family="Arial" font-size="22" font-weight="bold" fill="white">English AI Tutor</text>
  <circle cx="750" cy="30" r="20" fill="#818cf8" />
  <text x="750" y="38" font-family="Arial" font-size="18" font-weight="bold" fill="white" text-anchor="middle">JD</text>
  
  <!-- Page Title -->
  <text x="30" y="100" font-family="Arial" font-size="24" font-weight="bold" fill="#1e293b">Your Learning Progress</text>
  <text x="30" y="130" font-family="Arial" font-size="16" fill="#64748b">Track your improvement and focus on areas that need attention</text>
  
  <!-- Main Stats -->
  <rect x="30" y="160" width="220" height="120" rx="8" fill="white" stroke="#e2e8f0" stroke-width="1" />
  <text x="50" y="190" font-family="Arial" font-size="16" font-weight="bold" fill="#334155">Total Study Time</text>
  <text x="50" y="230" font-family="Arial" font-size="28" font-weight="bold" fill="#4f46e5">27.5 hours</text>
  <text x="50" y="260" font-family="Arial" font-size="14" fill="#64748b">+3.5 hours this week</text>
  
  <rect x="270" y="160" width="220" height="120" rx="8" fill="white" stroke="#e2e8f0" stroke-width="1" />
  <text x="290" y="190" font-family="Arial" font-size="16" font-weight="bold" fill="#334155">Completed Lessons</text>
  <text x="290" y="230" font-family="Arial" font-size="28" font-weight="bold" fill="#4f46e5">12 / 21</text>
  <text x="290" y="260" font-family="Arial" font-size="14" fill="#64748b">57% completion rate</text>
  
  <rect x="510" y="160" width="220" height="120" rx="8" fill="white" stroke="#e2e8f0" stroke-width="1" />
  <text x="530" y="190" font-family="Arial" font-size="16" font-weight="bold" fill="#334155">Current Level</text>
  <text x="530" y="230" font-family="Arial" font-size="28" font-weight="bold" fill="#4f46e5">Intermediate</text>
  <text x="530" y="260" font-family="Arial" font-size="14" fill="#64748b">B1-B2 on CEFR scale</text>
  
  <!-- Skill Progress -->
  <text x="30" y="320" font-family="Arial" font-size="18" font-weight="bold" fill="#334155">Skill Breakdown</text>
  
  <rect x="30" y="340" width="740" height="30" rx="5" fill="#f1f5f9" />
  <rect x="30" y="340" width="555" height="30" rx="5" fill="#d8b4fe" />
  <text x="50" y="361" font-family="Arial" font-size="14" fill="#5b21b6">Listening</text>
  <text x="700" y="361" font-family="Arial" font-size="14" fill="#5b21b6" text-anchor="end">75%</text>
  
  <rect x="30" y="380" width="740" height="30" rx="5" fill="#f1f5f9" />
  <rect x="30" y="380" width="481" height="30" rx="5" fill="#c7d2fe" />
  <text x="50" y="401" font-family="Arial" font-size="14" fill="#4338ca">Speaking</text>
  <text x="700" y="401" font-family="Arial" font-size="14" fill="#4338ca" text-anchor="end">65%</text>
  
  <rect x="30" y="420" width="740" height="30" rx="5" fill="#f1f5f9" />
  <rect x="30" y="420" width="629" height="30" rx="5" fill="#bfdbfe" />
  <text x="50" y="441" font-family="Arial" font-size="14" fill="#1e40af">Reading</text>
  <text x="700" y="441" font-family="Arial" font-size="14" fill="#1e40af" text-anchor="end">85%</text>
  
  <rect x="30" y="460" width="740" height="30" rx="5" fill="#f1f5f9" />
  <rect x="30" y="460" width="407" height="30" rx="5" fill="#fecaca" />
  <text x="50" y="481" font-family="Arial" font-size="14" fill="#991b1b">Writing</text>
  <text x="700" y="481" font-family="Arial" font-size="14" fill="#991b1b" text-anchor="end">55%</text>
</svg>