<?xml version="1.0" encoding="UTF-8" standalone="no"?>
<svg width="800" height="500" viewBox="0 0 800 500" xmlns="http://www.w3.org/2000/svg">
  <rect width="800" height="500" fill="#f8fafc" />
  
  <!-- Header -->
  <rect width="800" height="60" fill="#4f46e5" />
  <text x="30" y="38" font-family="Arial" font-size="22" font-weight="bold" fill="white">English AI Tutor</text>
  <circle cx="750" cy="30" r="20" fill="#818cf8" />
  <text x="750" y="38" font-family="Arial" font-size="18" font-weight="bold" fill="white" text-anchor="middle">JD</text>
  
  <!-- Left Sidebar -->
  <rect x="0" y="60" width="200" height="440" fill="#f1f5f9" />
  <text x="20" y="100" font-family="Arial" font-size="16" font-weight="bold" fill="#334155">Course Progress</text>
  
  <!-- Progress Bar -->
  <rect x="20" y="120" width="160" height="10" rx="5" fill="#e2e8f0" />
  <rect x="20" y="120" width="92" height="10" rx="5" fill="#4f46e5" />
  <text x="20" y="150" font-family="Arial" font-size="14" fill="#64748b">57% Complete</text>
  
  <!-- Nav Items -->
  <rect x="10" y="180" width="180" height="40" rx="5" fill="#4f46e5" />
  <text x="50" y="205" font-family="Arial" font-size="14" font-weight="bold" fill="white">Lessons</text>
  
  <rect x="10" y="230" width="180" height="40" rx="5" fill="transparent" />
  <text x="50" y="255" font-family="Arial" font-size="14" fill="#334155">Vocabulary</text>
  
  <rect x="10" y="280" width="180" height="40" rx="5" fill="transparent" />
  <text x="50" y="305" font-family="Arial" font-size="14" fill="#334155">Grammar</text>
  
  <rect x="10" y="330" width="180" height="40" rx="5" fill="transparent" />
  <text x="50" y="355" font-family="Arial" font-size="14" fill="#334155">Practice Tests</text>
  
  <rect x="10" y="380" width="180" height="40" rx="5" fill="transparent" />
  <text x="50" y="405" font-family="Arial" font-size="14" fill="#334155">Settings</text>
  
  <!-- Main Content -->
  <text x="230" y="100" font-family="Arial" font-size="24" font-weight="bold" fill="#1e293b">Lesson Library</text>
  <text x="230" y="130" font-family="Arial" font-size="16" fill="#64748b">Browse all available lessons to continue your learning journey</text>
  
  <!-- Lesson Cards -->
  <!-- Card 1 -->
  <rect x="230" y="160" width="260" height="140" rx="8" fill="white" stroke="#e2e8f0" stroke-width="1" />
  <rect x="230" y="160" width="260" height="50" rx="8" fill="#c7d2fe" />
  <text x="250" y="190" font-family="Arial" font-size="16" font-weight="bold" fill="#4338ca">Daily Conversations</text>
  <text x="250" y="230" font-family="Arial" font-size="14" fill="#64748b">Learn how to engage in everyday</text>
  <text x="250" y="250" font-family="Arial" font-size="14" fill="#64748b">conversations with confidence</text>
  <rect x="250" y="270" width="80" height="20" rx="10" fill="#4f46e5" />
  <text x="290" y="285" font-family="Arial" font-size="12" fill="white" text-anchor="middle">Continue</text>
  <text x="380" y="285" font-family="Arial" font-size="12" fill="#64748b">4/7 completed</text>
  
  <!-- Card 2 -->
  <rect x="510" y="160" width="260" height="140" rx="8" fill="white" stroke="#e2e8f0" stroke-width="1" />
  <rect x="510" y="160" width="260" height="50" rx="8" fill="#bfdbfe" />
  <text x="530" y="190" font-family="Arial" font-size="16" font-weight="bold" fill="#1e40af">Business English</text>
  <text x="530" y="230" font-family="Arial" font-size="14" fill="#64748b">Master professional communication</text>
  <text x="530" y="250" font-family="Arial" font-size="14" fill="#64748b">for workplace success</text>
  <rect x="530" y="270" width="80" height="20" rx="10" fill="#4f46e5" />
  <text x="570" y="285" font-family="Arial" font-size="12" fill="white" text-anchor="middle">Start</text>
  <text x="660" y="285" font-family="Arial" font-size="12" fill="#64748b">0/5 completed</text>
  
  <!-- Card 3 -->
  <rect x="230" y="320" width="260" height="140" rx="8" fill="white" stroke="#e2e8f0" stroke-width="1" />
  <rect x="230" y="320" width="260" height="50" rx="8" fill="#fecaca" />
  <text x="250" y="350" font-family="Arial" font-size="16" font-weight="bold" fill="#991b1b">Travel & Tourism</text>
  <text x="250" y="390" font-family="Arial" font-size="14" fill="#64748b">Essential phrases and vocabulary</text>
  <text x="250" y="410" font-family="Arial" font-size="14" fill="#64748b">for travelers</text>
  <rect x="250" y="430" width="80" height="20" rx="10" fill="#4f46e5" />
  <text x="290" y="445" font-family="Arial" font-size="12" fill="white" text-anchor="middle">Continue</text>
  <text x="380" y="445" font-family="Arial" font-size="12" fill="#64748b">2/6 completed</text>
  
  <!-- Card 4 -->
  <rect x="510" y="320" width="260" height="140" rx="8" fill="white" stroke="#e2e8f0" stroke-width="1" />
  <rect x="510" y="320" width="260" height="50" rx="8" fill="#d8b4fe" />
  <text x="530" y="350" font-family="Arial" font-size="16" font-weight="bold" fill="#6b21a8">Academic Writing</text>
  <text x="530" y="390" font-family="Arial" font-size="14" fill="#64748b">Improve your essay writing and</text>
  <text x="530" y="410" font-family="Arial" font-size="14" fill="#64748b">research paper skills</text>
  <rect x="530" y="430" width="80" height="20" rx="10" fill="#6d28d9" />
  <text x="570" y="445" font-family="Arial" font-size="12" fill="white" text-anchor="middle">Locked</text>
  <text x="660" y="445" font-family="Arial" font-size="12" fill="#64748b">Premium Course</text>
</svg>