<?xml version="1.0" encoding="UTF-8" standalone="no"?>
<svg width="800" height="500" viewBox="0 0 800 500" xmlns="http://www.w3.org/2000/svg">
  <rect width="800" height="500" fill="#f8fafc" />
  
  <!-- Header -->
  <rect width="800" height="60" fill="#ff4500" />
  <text x="80" y="38" font-family="Arial" font-size="22" font-weight="bold" fill="white">Redditify</text>
  
  <!-- Search Bar -->
  <rect x="220" y="15" width="300" height="30" rx="15" fill="white" />
  <text x="245" y="35" font-family="Arial" font-size="14" fill="#94a3b8">Search...</text>
  
  <!-- User Menu -->
  <rect x="650" y="15" width="120" height="30" rx="15" fill="#ff7342" />
  <text x="710" y="35" font-family="Arial" font-size="14" fill="white" text-anchor="middle">Sign In</text>
  
  <!-- Left Sidebar -->
  <rect x="20" y="80" width="180" height="400" rx="8" fill="white" stroke="#e2e8f0" stroke-width="1" />
  <text x="40" y="110" font-family="Arial" font-size="16" font-weight="bold" fill="#334155">Communities</text>
  
  <!-- Community List -->
  <rect x="30" y="130" width="160" height="40" rx="5" fill="#fee2e2" />
  <text x="60" y="155" font-family="Arial" font-size="14" fill="#991b1b">r/programming</text>
  <circle cx="45" cy="150" r="8" fill="#991b1b" />
  
  <rect x="30" y="180" width="160" height="40" rx="5" fill="transparent" />
  <text x="60" y="205" font-family="Arial" font-size="14" fill="#334155">r/webdev</text>
  <circle cx="45" cy="200" r="8" fill="#3b82f6" />
  
  <rect x="30" y="230" width="160" height="40" rx="5" fill="transparent" />
  <text x="60" y="255" font-family="Arial" font-size="14" fill="#334155">r/reactjs</text>
  <circle cx="45" cy="250" r="8" fill="#0ea5e9" />
  
  <rect x="30" y="280" width="160" height="40" rx="5" fill="transparent" />
  <text x="60" y="305" font-family="Arial" font-size="14" fill="#334155">r/typescript</text>
  <circle cx="45" cy="300" r="8" fill="#3b82f6" />
  
  <rect x="30" y="330" width="160" height="40" rx="5" fill="transparent" />
  <text x="60" y="355" font-family="Arial" font-size="14" fill="#334155">r/javascript</text>
  <circle cx="45" cy="350" r="8" fill="#eab308" />
  
  <rect x="30" y="380" width="160" height="40" rx="5" fill="transparent" />
  <text x="60" y="405" font-family="Arial" font-size="14" fill="#334155">r/askprogramming</text>
  <circle cx="45" cy="400" r="8" fill="#22c55e" />
  
  <!-- Main Content Area -->
  <rect x="220" y="80" width="560" height="400" rx="8" fill="white" stroke="#e2e8f0" stroke-width="1" />
  <text x="250" y="115" font-family="Arial" font-size="20" font-weight="bold" fill="#ff4500">r/programming</text>
  <text x="250" y="140" font-family="Arial" font-size="14" fill="#64748b">A community for discussing programming languages and tools</text>
  
  <!-- Post Sorting Tabs -->
  <rect x="250" y="160" width="80" height="30" rx="15" fill="#ff4500" />
  <text x="290" y="180" font-family="Arial" font-size="14" fill="white" text-anchor="middle">Hot</text>
  
  <rect x="340" y="160" width="80" height="30" rx="15" fill="#f1f5f9" />
  <text x="380" y="180" font-family="Arial" font-size="14" fill="#64748b" text-anchor="middle">New</text>
  
  <rect x="430" y="160" width="80" height="30" rx="15" fill="#f1f5f9" />
  <text x="470" y="180" font-family="Arial" font-size="14" fill="#64748b" text-anchor="middle">Top</text>
  
  <!-- Posts -->
  <!-- Post 1 -->
  <rect x="250" y="210" width="500" height="120" rx="8" fill="#f8fafc" stroke="#e2e8f0" stroke-width="1" />
  <text x="270" y="235" font-family="Arial" font-size="16" font-weight="bold" fill="#1e293b">Building a Full-Stack Application with React and Node.js</text>
  <text x="270" y="260" font-family="Arial" font-size="14" fill="#64748b">Posted by u/devmaster123 • 2 hours ago</text>
  <text x="270" y="290" font-family="Arial" font-size="14" fill="#334155">I've been working on a full-stack application and wanted to share my experience...</text>
  <text x="330" y="315" font-family="Arial" font-size="14" fill="#64748b">128 comments</text>
  <text x="450" y="315" font-family="Arial" font-size="14" fill="#64748b">321 upvotes</text>
  
  <!-- Post 2 -->
  <rect x="250" y="350" width="500" height="120" rx="8" fill="#f8fafc" stroke="#e2e8f0" stroke-width="1" />
  <text x="270" y="375" font-family="Arial" font-size="16" font-weight="bold" fill="#1e293b">What's your favorite programming language and why?</text>
  <text x="270" y="400" font-family="Arial" font-size="14" fill="#64748b">Posted by u/codingqueen • 5 hours ago</text>
  <text x="270" y="430" font-family="Arial" font-size="14" fill="#334155">Just curious about what languages everyone uses and their reasons...</text>
  <text x="330" y="455" font-family="Arial" font-size="14" fill="#64748b">573 comments</text>
  <text x="450" y="455" font-family="Arial" font-size="14" fill="#64748b">842 upvotes</text>
</svg>