<?xml version="1.0" encoding="UTF-8" standalone="no"?>
<svg width="800" height="500" viewBox="0 0 800 500" xmlns="http://www.w3.org/2000/svg">
  <rect width="800" height="500" fill="#f8fafc" />
  
  <!-- Header -->
  <rect width="800" height="60" fill="#ff4500" />
  <text x="80" y="38" font-family="Arial" font-size="22" font-weight="bold" fill="white">Redditify</text>
  
  <!-- Search Bar -->
  <rect x="220" y="15" width="300" height="30" rx="15" fill="white" />
  <text x="245" y="35" font-family="Arial" font-size="14" fill="#94a3b8">Search...</text>
  
  <!-- User Menu -->
  <circle cx="730" cy="30" r="20" fill="#ff7342" />
  <text x="730" y="35" font-family="Arial" font-size="14" font-weight="bold" fill="white" text-anchor="middle">DM</text>
  
  <!-- Profile Banner -->
  <rect x="100" y="80" width="600" height="100" rx="8" fill="#0ea5e9" />
  
  <!-- Profile Picture -->
  <circle cx="150" cy="170" r="40" fill="#ff4500" stroke="white" stroke-width="4" />
  <text x="150" y="180" font-family="Arial" font-size="24" font-weight="bold" fill="white" text-anchor="middle">DM</text>
  
  <!-- Username & Stats -->
  <text x="230" y="150" font-family="Arial" font-size="24" font-weight="bold" fill="white">u/devmaster123</text>
  <text x="230" y="180" font-family="Arial" font-size="14" fill="white">Member for 2 years • 15.2K Karma</text>
  
  <!-- Profile Container -->
  <rect x="100" y="200" width="600" height="280" rx="8" fill="white" stroke="#e2e8f0" stroke-width="1" />
  
  <!-- Profile Navigation -->
  <rect x="120" y="220" width="100" height="30" rx="15" fill="#ff4500" />
  <text x="170" y="240" font-family="Arial" font-size="14" fill="white" text-anchor="middle">Posts</text>
  
  <rect x="230" y="220" width="100" height="30" rx="15" fill="#f1f5f9" />
  <text x="280" y="240" font-family="Arial" font-size="14" fill="#64748b" text-anchor="middle">Comments</text>
  
  <rect x="340" y="220" width="100" height="30" rx="15" fill="#f1f5f9" />
  <text x="390" y="240" font-family="Arial" font-size="14" fill="#64748b" text-anchor="middle">Saved</text>
  
  <rect x="450" y="220" width="100" height="30" rx="15" fill="#f1f5f9" />
  <text x="500" y="240" font-family="Arial" font-size="14" fill="#64748b" text-anchor="middle">Upvoted</text>
  
  <!-- Post Item 1 -->
  <rect x="120" y="270" width="560" height="90" rx="8" fill="#f8fafc" stroke="#e2e8f0" stroke-width="1" />
  <text x="140" y="290" font-family="Arial" font-size="14" fill="#64748b">Posted to r/programming • 2 hours ago</text>
  <text x="140" y="315" font-family="Arial" font-size="16" font-weight="bold" fill="#1e293b">Building a Full-Stack Application with React and Node.js</text>
  <text x="140" y="340" font-family="Arial" font-size="14" fill="#64748b">321 upvotes • 128 comments</text>
  
  <!-- Post Item 2 -->
  <rect x="120" y="370" width="560" height="90" rx="8" fill="#f8fafc" stroke="#e2e8f0" stroke-width="1" />
  <text x="140" y="390" font-family="Arial" font-size="14" fill="#64748b">Posted to r/reactjs • 3 days ago</text>
  <text x="140" y="415" font-family="Arial" font-size="16" font-weight="bold" fill="#1e293b">How to optimize React component re-renders</text>
  <text x="140" y="440" font-family="Arial" font-size="14" fill="#64748b">187 upvotes • 45 comments</text>
</svg>