<?xml version="1.0" encoding="UTF-8" standalone="no"?>
<svg width="800" height="500" viewBox="0 0 800 500" xmlns="http://www.w3.org/2000/svg">
  <rect width="800" height="500" fill="#f8fafc" />
  
  <!-- Header -->
  <rect width="800" height="60" fill="#ff4500" />
  <text x="80" y="38" font-family="Arial" font-size="22" font-weight="bold" fill="white">Redditify</text>
  
  <!-- Search Bar -->
  <rect x="220" y="15" width="300" height="30" rx="15" fill="white" />
  <text x="245" y="35" font-family="Arial" font-size="14" fill="#94a3b8">Search...</text>
  
  <!-- User Menu -->
  <rect x="650" y="15" width="120" height="30" rx="15" fill="#ff7342" />
  <text x="710" y="35" font-family="Arial" font-size="14" fill="white" text-anchor="middle">Sign In</text>
  
  <!-- Thread Container -->
  <rect x="100" y="80" width="600" height="400" rx="8" fill="white" stroke="#e2e8f0" stroke-width="1" />
  
  <!-- Back Button -->
  <rect x="120" y="100" width="100" height="30" rx="15" fill="#f1f5f9" />
  <text x="170" y="120" font-family="Arial" font-size="14" fill="#64748b" text-anchor="middle">← Back</text>
  
  <!-- Community Info -->
  <text x="230" y="120" font-family="Arial" font-size="14" fill="#64748b">r/programming</text>
  
  <!-- Post Title -->
  <text x="120" y="160" font-family="Arial" font-size="20" font-weight="bold" fill="#1e293b">Building a Full-Stack Application with React and Node.js</text>
  <text x="120" y="185" font-family="Arial" font-size="14" fill="#64748b">Posted by u/devmaster123 • 2 hours ago</text>
  
  <!-- Post Content -->
  <rect x="120" y="200" width="560" height="100" rx="5" fill="#f8fafc" />
  <text x="140" y="225" font-family="Arial" font-size="14" fill="#334155">I've been working on a full-stack application using React for the frontend and Node.js for the backend.</text>
  <text x="140" y="250" font-family="Arial" font-size="14" fill="#334155">The project uses MongoDB for the database and features user authentication, real-time updates</text>
  <text x="140" y="275" font-family="Arial" font-size="14" fill="#334155">with WebSockets, and a responsive design. What technologies do you recommend for deployment?</text>
  
  <!-- Vote Controls -->
  <rect x="120" y="310" width="30" height="30" rx="15" fill="#f1f5f9" />
  <text x="135" y="330" font-family="Arial" font-size="18" fill="#64748b" text-anchor="middle">↑</text>
  <text x="165" y="330" font-family="Arial" font-size="16" fill="#64748b">321</text>
  <rect x="120" y="345" width="30" height="30" rx="15" fill="#f1f5f9" />
  <text x="135" y="365" font-family="Arial" font-size="18" fill="#64748b" text-anchor="middle">↓</text>
  
  <!-- Comment Box -->
  <rect x="120" y="390" width="560" height="60" rx="5" fill="#f8fafc" stroke="#e2e8f0" stroke-width="1" />
  <text x="140" y="425" font-family="Arial" font-size="14" fill="#94a3b8">Write a comment...</text>
  <rect x="560" y="420" width="100" height="30" rx="15" fill="#ff4500" />
  <text x="610" y="440" font-family="Arial" font-size="14" fill="white" text-anchor="middle">Comment</text>
  
  <!-- Comments Heading -->
  <text x="120" y="370" font-family="Arial" font-size="16" font-weight="bold" fill="#64748b">Comments (128)</text>
</svg>