<?xml version="1.0" encoding="UTF-8" standalone="no"?>
<svg width="800px" height="500px" viewBox="0 0 800 500" version="1.1" xmlns="http://www.w3.org/2000/svg" xmlns:xlink="http://www.w3.org/1999/xlink">
    <defs>
        <linearGradient x1="0%" y1="0%" x2="100%" y2="100%" id="linearGradient-1">
            <stop stop-color="#3B82F6" offset="0%"></stop>
            <stop stop-color="#2563EB" offset="100%"></stop>
        </linearGradient>
        <filter x="-2.1%" y="-5.2%" width="104.1%" height="110.4%" filterUnits="objectBoundingBox" id="filter-1">
            <feOffset dx="0" dy="2" in="SourceAlpha" result="shadowOffsetOuter1"></feOffset>
            <feGaussianBlur stdDeviation="2" in="shadowOffsetOuter1" result="shadowBlurOuter1"></feGaussianBlur>
            <feColorMatrix values="0 0 0 0 0   0 0 0 0 0   0 0 0 0 0  0 0 0 0.1 0" type="matrix" in="shadowBlurOuter1" result="shadowMatrixOuter1"></feColorMatrix>
            <feMerge>
                <feMergeNode in="shadowMatrixOuter1"></feMergeNode>
                <feMergeNode in="SourceGraphic"></feMergeNode>
            </feMerge>
        </filter>
    </defs>
    <g stroke="none" stroke-width="1" fill="none" fill-rule="evenodd">
        <rect fill="#F9FAFB" x="0" y="0" width="800" height="500"></rect>
        
        <!-- Header -->
        <rect fill="#1E293B" x="0" y="0" width="800" height="60"></rect>
        <text font-family="Arial" font-size="20" font-weight="bold" fill="#FFFFFF" x="30" y="38">
            Statistical Arbitrage Platform
        </text>
        
        <!-- Navigation -->
        <text font-family="Arial" font-size="14" font-weight="bold" fill="#FFFFFF" x="320" y="38">
            Dashboard
        </text>
        <text font-family="Arial" font-size="14" font-weight="normal" fill="#94A3B8" x="420" y="38">
            Pair Selection
        </text>
        <text font-family="Arial" font-size="14" font-weight="normal" fill="#94A3B8" x="530" y="38">
            Analytics
        </text>
        <text font-family="Arial" font-size="14" font-weight="normal" fill="#94A3B8" x="620" y="38">
            Settings
        </text>
        <circle fill="#10B981" cx="700" cy="30" r="5"></circle>
        <text font-family="Arial" font-size="14" font-weight="normal" fill="#FFFFFF" x="715" y="38">
            Connected
        </text>
        
        <!-- Sidebar -->
        <rect fill="#0F172A" x="0" y="60" width="200" height="440"></rect>
        
        <rect fill="#1E40AF" x="20" y="100" width="160" height="40" rx="4"></rect>
        <text font-family="Arial" font-size="14" font-weight="bold" fill="#FFFFFF" x="55" y="125">
            Dashboard
        </text>
        
        <text font-family="Arial" font-size="14" font-weight="normal" fill="#94A3B8" x="55" y="175">
            Pair Finder
        </text>
        
        <text font-family="Arial" font-size="14" font-weight="normal" fill="#94A3B8" x="55" y="225">
            Watchlist
        </text>
        
        <text font-family="Arial" font-size="14" font-weight="normal" fill="#94A3B8" x="55" y="275">
            Backtest
        </text>
        
        <text font-family="Arial" font-size="14" font-weight="normal" fill="#94A3B8" x="55" y="325">
            Reports
        </text>
        
        <line x1="20" y1="360" x2="180" y2="360" stroke="#1E293B" stroke-width="1"></line>
        
        <text font-family="Arial" font-size="14" font-weight="normal" fill="#94A3B8" x="55" y="395">
            Account
        </text>
        
        <text font-family="Arial" font-size="14" font-weight="normal" fill="#94A3B8" x="55" y="445">
            Help
        </text>
        
        <!-- Main Content -->
        <rect fill="#FFFFFF" x="220" y="80" width="560" height="400" rx="6" filter="url(#filter-1)"></rect>
        
        <!-- Summary Cards -->
        <rect fill="#F8FAFC" x="240" y="100" width="160" height="100" rx="6" filter="url(#filter-1)"></rect>
        <text font-family="Arial" font-size="14" font-weight="bold" fill="#475569" x="260" y="125">
            Total Pairs
        </text>
        <text font-family="Arial" font-size="24" font-weight="bold" fill="#2563EB" x="260" y="160">
            248
        </text>
        <text font-family="Arial" font-size="12" font-weight="normal" fill="#64748B" x="260" y="185">
            +12 in last 24h
        </text>
        
        <rect fill="#F8FAFC" x="420" y="100" width="160" height="100" rx="6" filter="url(#filter-1)"></rect>
        <text font-family="Arial" font-size="14" font-weight="bold" fill="#475569" x="440" y="125">
            Active Trades
        </text>
        <text font-family="Arial" font-size="24" font-weight="bold" fill="#10B981" x="440" y="160">
            8
        </text>
        <text font-family="Arial" font-size="12" font-weight="normal" fill="#64748B" x="440" y="185">
            $28,540 total value
        </text>
        
        <rect fill="#F8FAFC" x="600" y="100" width="160" height="100" rx="6" filter="url(#filter-1)"></rect>
        <text font-family="Arial" font-size="14" font-weight="bold" fill="#475569" x="620" y="125">
            24h Profit
        </text>
        <text font-family="Arial" font-size="24" font-weight="bold" fill="#10B981" x="620" y="160">
            $652.84
        </text>
        <text font-family="Arial" font-size="12" font-weight="normal" fill="#64748B" x="620" y="185">
            +2.3% portfolio growth
        </text>
        
        <!-- Performance Chart -->
        <rect fill="#F8FAFC" x="240" y="220" width="340" height="250" rx="6" filter="url(#filter-1)"></rect>
        <text font-family="Arial" font-size="16" font-weight="bold" fill="#1E293B" x="260" y="245">
            Total P&L (Last 30 Days)
        </text>
        
        <!-- Chart X-Axis -->
        <line x1="260" y1="420" x2="560" y2="420" stroke="#CBD5E1" stroke-width="1"></line>
        <text font-family="Arial" font-size="10" font-weight="normal" fill="#64748B" x="260" y="440">
            Apr 10
        </text>
        <text font-family="Arial" font-size="10" font-weight="normal" fill="#64748B" x="330" y="440">
            Apr 17
        </text>
        <text font-family="Arial" font-size="10" font-weight="normal" fill="#64748B" x="400" y="440">
            Apr 24
        </text>
        <text font-family="Arial" font-size="10" font-weight="normal" fill="#64748B" x="470" y="440">
            May 1
        </text>
        <text font-family="Arial" font-size="10" font-weight="normal" fill="#64748B" x="540" y="440">
            May 8
        </text>
        
        <!-- Chart Y-Axis -->
        <line x1="260" y1="270" x2="260" y2="420" stroke="#CBD5E1" stroke-width="1"></line>
        <text font-family="Arial" font-size="10" font-weight="normal" fill="#64748B" x="235" y="420">
            $0
        </text>
        <text font-family="Arial" font-size="10" font-weight="normal" fill="#64748B" x="235" y="370">
            $500
        </text>
        <text font-family="Arial" font-size="10" font-weight="normal" fill="#64748B" x="235" y="320">
            $1,000
        </text>
        <text font-family="Arial" font-size="10" font-weight="normal" fill="#64748B" x="235" y="270">
            $1,500
        </text>
        
        <!-- Chart Grid -->
        <line x1="260" y1="370" x2="560" y2="370" stroke="#E2E8F0" stroke-width="1" stroke-dasharray="4"></line>
        <line x1="260" y1="320" x2="560" y2="320" stroke="#E2E8F0" stroke-width="1" stroke-dasharray="4"></line>
        <line x1="260" y1="270" x2="560" y2="270" stroke="#E2E8F0" stroke-width="1" stroke-dasharray="4"></line>
        
        <!-- Chart Data Area -->
        <path d="M260,420 L270,415 L280,410 L290,405 L300,400 L310,395 L320,385 L330,380 L340,375 L350,365 L360,350 L370,340 L380,335 L390,325 L400,320 L410,310 L420,305 L430,300 L440,290 L450,285 L460,280 L470,275 L480,270 L490,265 L500,260 L510,265 L520,270 L530,265 L540,260 L550,255 L560,250 L560,420 Z" fill="#DBEAFE" opacity="0.5"></path>
        
        <!-- Chart Data Line -->
        <polyline points="260,420 270,415 280,410 290,405 300,400 310,395 320,385 330,380 340,375 350,365 360,350 370,340 380,335 390,325 400,320 410,310 420,305 430,300 440,290 450,285 460,280 470,275 480,270 490,265 500,260 510,265 520,270 530,265 540,260 550,255 560,250" 
                 stroke="#3B82F6" stroke-width="2" fill="none"></polyline>
        
        <!-- Active Trades Section -->
        <rect fill="#F8FAFC" x="600" y="220" width="160" height="250" rx="6" filter="url(#filter-1)"></rect>
        <text font-family="Arial" font-size="16" font-weight="bold" fill="#1E293B" x="620" y="245">
            Active Trades
        </text>
        
        <!-- Trade Cards -->
        <rect fill="#FFFFFF" x="610" y="260" width="140" height="70" rx="4" stroke="#E2E8F0" stroke-width="1"></rect>
        <text font-family="Arial" font-size="12" font-weight="bold" fill="#1E293B" x="620" y="280">
            BTC-ETH Pair
        </text>
        <text font-family="Arial" font-size="10" font-weight="normal" fill="#64748B" x="620" y="300">
            Correlation: 0.92
        </text>
        <text font-family="Arial" font-size="10" font-weight="bold" fill="#10B981" x="620" y="320">
            +0.87% Today
        </text>
        
        <rect fill="#FFFFFF" x="610" y="340" width="140" height="70" rx="4" stroke="#E2E8F0" stroke-width="1"></rect>
        <text font-family="Arial" font-size="12" font-weight="bold" fill="#1E293B" x="620" y="360">
            LINK-DOT Pair
        </text>
        <text font-family="Arial" font-size="10" font-weight="normal" fill="#64748B" x="620" y="380">
            Correlation: 0.89
        </text>
        <text font-family="Arial" font-size="10" font-weight="bold" fill="#10B981" x="620" y="400">
            +0.64% Today
        </text>
        
        <rect fill="#3B82F6" x="610" y="420" width="140" height="40" rx="4"></rect>
        <text font-family="Arial" font-size="14" font-weight="bold" fill="#FFFFFF" x="632" y="445">
            View All Pairs
        </text>
    </g>
</svg>