<svg width="400" height="192" viewBox="0 0 400 192" fill="none" xmlns="http://www.w3.org/2000/svg">
  <!-- Background with gradient -->
  <rect width="400" height="192" rx="8" fill="url(#paint0_linear)" />
  
  <!-- Business growth chart -->
  <path d="M50 142L95 110L140 122L185 90L230 70L275 50L320 30L350 20" stroke="#ffffff" stroke-width="3" stroke-linecap="round" stroke-linejoin="round" />
  
  <!-- Bar chart elements -->
  <rect x="80" y="80" width="30" height="62" fill="#EC4899" fill-opacity="0.7" rx="2" />
  <rect x="120" y="95" width="30" height="47" fill="#EC4899" fill-opacity="0.85" rx="2" />
  <rect x="160" y="65" width="30" height="77" fill="#EC4899" rx="2" />
  
  <!-- Office building icon -->
  <path d="M290 130h-25V95c0-2.8 2.2-5 5-5h15c2.8 0 5 2.2 5 5v35z" fill="#ffffff" />
  <rect x="275" y="105" width="5" height="5" fill="#EC4899" />
  <rect x="285" y="105" width="5" height="5" fill="#EC4899" />
  <rect x="275" y="115" width="5" height="5" fill="#EC4899" />
  <rect x="285" y="115" width="5" height="5" fill="#EC4899" />
  
  <!-- Digital devices -->
  <rect x="50" y="40" width="40" height="30" rx="2" fill="#ffffff" />
  <rect x="55" y="45" width="30" height="15" rx="1" fill="#EC4899" fill-opacity="0.3" />
  <rect x="60" y="70" width="20" height="2" fill="#ffffff" />
  
  <!-- Laptop -->
  <path d="M230 130h40v-25a3 3 0 00-3-3h-34a3 3 0 00-3 3v25z" fill="#ffffff" />
  <rect x="235" y="107" width="30" height="18" rx="1" fill="#EC4899" fill-opacity="0.3" />
  <rect x="225" y="130" width="50" height="5" rx="1" fill="#ffffff" />
  
  <!-- Circular success indicator with checkmark -->
  <circle cx="330" cy="80" r="20" fill="#EC4899" />
  <path d="M320 80l7 7 15-15" stroke="#ffffff" stroke-width="3" stroke-linecap="round" stroke-linejoin="round" />
  
  <!-- Social media icons -->
  <circle cx="60" cy="115" r="10" fill="#ffffff" />
  <path d="M57 114h6v-2h-6v2zm0 3h6v-2h-6v2z" fill="#EC4899" />
  
  <circle cx="90" cy="115" r="10" fill="#ffffff" />
  <path d="M90 110v10M85 115h10" stroke="#EC4899" stroke-width="2" />
  
  <circle cx="120" cy="115" r="10" fill="#ffffff" />
  <path d="M120 110l-5 7h10l-5-7z" fill="#EC4899" />
  
  <defs>
    <linearGradient id="paint0_linear" x1="0" y1="0" x2="400" y2="192" gradientUnits="userSpaceOnUse">
      <stop stop-color="#6366F1" />
      <stop offset="1" stop-color="#EC4899" />
    </linearGradient>
  </defs>
</svg>