<svg width="500" height="300" viewBox="0 0 500 300" xmlns="http://www.w3.org/2000/svg">
  <!-- Background gradient -->
  <defs>
    <linearGradient id="bgGradient" x1="0%" y1="0%" x2="100%" y2="100%">
      <stop offset="0%" stop-color="#EC4899" />
      <stop offset="100%" stop-color="#8B5CF6" />
    </linearGradient>
    <linearGradient id="chartGradient" x1="0%" y1="100%" x2="0%" y2="0%">
      <stop offset="0%" stop-color="#EC4899" stop-opacity="0.8" />
      <stop offset="100%" stop-color="#EC4899" stop-opacity="0.2" />
    </linearGradient>
  </defs>
  
  <!-- Main background -->
  <rect width="500" height="300" fill="url(#bgGradient)" />
  
  <!-- Marketing concept visualization -->
  
  <!-- Social Media Dashboard -->
  <rect x="50" y="30" width="180" height="110" rx="5" fill="white" opacity="0.9" />
  <rect x="60" y="40" width="160" height="20" rx="3" fill="#F3F4F6" />
  <text x="100" y="55" font-family="Arial" font-size="10" fill="#374151" font-weight="bold">SOCIAL METRICS</text>
  
  <!-- Dashboard charts and metrics -->
  <rect x="70" y="70" width="50" height="60" rx="3" fill="#F3F4F6" />
  <rect x="75" y="110" width="40" height="15" fill="url(#chartGradient)" />
  <rect x="75" y="95" width="40" height="15" fill="url(#chartGradient)" opacity="0.7" />
  <rect x="75" y="80" width="40" height="15" fill="url(#chartGradient)" opacity="0.5" />
  <text x="95" y="105" font-family="Arial" font-size="8" fill="white" font-weight="bold" text-anchor="middle">+24%</text>
  
  <rect x="130" y="70" width="70" height="60" rx="3" fill="#F3F4F6" />
  <circle cx="165" cy="100" r="25" fill="transparent" stroke="#EC4899" stroke-width="8" stroke-dasharray="110 40" />
  <text x="165" y="104" font-family="Arial" font-size="10" fill="#374151" font-weight="bold" text-anchor="middle">76%</text>
  
  <!-- Email Campaign Visualization -->
  <rect x="270" y="30" width="180" height="110" rx="5" fill="white" opacity="0.9" />
  <rect x="280" y="40" width="160" height="20" rx="3" fill="#F3F4F6" />
  <text x="330" y="55" font-family="Arial" font-size="10" fill="#374151" font-weight="bold">EMAIL CAMPAIGN</text>
  
  <!-- Email template visualization -->
  <rect x="285" y="70" width="150" height="60" rx="3" fill="#F3F4F6" />
  <rect x="295" y="80" width="70" height="5" rx="1" fill="#6366F1" />
  <rect x="295" y="90" width="130" height="3" rx="1" fill="#9CA3AF" />
  <rect x="295" y="95" width="130" height="3" rx="1" fill="#9CA3AF" />
  <rect x="295" y="100" width="130" height="3" rx="1" fill="#9CA3AF" />
  <rect x="295" y="105" width="70" height="3" rx="1" fill="#9CA3AF" />
  <rect x="295" y="115" width="50" height="8" rx="4" fill="#EC4899" />
  <text x="320" y="122" font-family="Arial" font-size="6" fill="white" font-weight="bold">SUBSCRIBE</text>
  
  <!-- SEO Strategy Map -->
  <rect x="50" y="160" width="180" height="110" rx="5" fill="white" opacity="0.9" />
  <rect x="60" y="170" width="160" height="20" rx="3" fill="#F3F4F6" />
  <text x="115" y="185" font-family="Arial" font-size="10" fill="#374151" font-weight="bold">SEO STRATEGY</text>
  
  <!-- SEO Visualization -->
  <line x1="70" y1="230" x2="210" y2="230" stroke="#E5E7EB" stroke-width="1" />
  <line x1="140" y1="200" x2="140" y2="260" stroke="#E5E7EB" stroke-width="1" />
  
  <circle cx="100" cy="220" r="15" fill="#8B5CF6" opacity="0.2" />
  <circle cx="100" cy="220" r="8" fill="#8B5CF6" opacity="0.6" />
  <text x="100" y="237" font-family="Arial" font-size="7" fill="#374151" text-anchor="middle">Keywords</text>
  
  <circle cx="160" cy="210" r="15" fill="#EC4899" opacity="0.2" />
  <circle cx="160" cy="210" r="8" fill="#EC4899" opacity="0.6" />
  <text x="160" y="227" font-family="Arial" font-size="7" fill="#374151" text-anchor="middle">Content</text>
  
  <circle cx="180" cy="240" r="15" fill="#6366F1" opacity="0.2" />
  <circle cx="180" cy="240" r="8" fill="#6366F1" opacity="0.6" />
  <text x="180" y="257" font-family="Arial" font-size="7" fill="#374151" text-anchor="middle">Backlinks</text>
  
  <circle cx="120" cy="250" r="15" fill="#10B981" opacity="0.2" />
  <circle cx="120" cy="250" r="8" fill="#10B981" opacity="0.6" />
  <text x="120" y="267" font-family="Arial" font-size="7" fill="#374151" text-anchor="middle">Analytics</text>
  
  <!-- PPC Advertising Concept -->
  <rect x="270" y="160" width="180" height="110" rx="5" fill="white" opacity="0.9" />
  <rect x="280" y="170" width="160" height="20" rx="3" fill="#F3F4F6" />
  <text x="333" y="185" font-family="Arial" font-size="10" fill="#374151" font-weight="bold">PPC CAMPAIGNS</text>
  
  <!-- Ad Creative -->
  <rect x="290" y="200" width="140" height="60" rx="3" fill="#F3F4F6" />
  <rect x="300" y="210" width="120" height="10" rx="1" fill="#6366F1" opacity="0.7" />
  <rect x="300" y="225" width="120" height="25" rx="1" fill="#EC4899" opacity="0.1" />
  <rect x="310" y="230" width="100" height="3" rx="1" fill="#6366F1" />
  <rect x="310" y="235" width="60" height="3" rx="1" fill="#6366F1" />
  <rect x="310" y="240" width="40" height="3" rx="1" fill="#6366F1" />
  <circle cx="370" cy="235" r="8" fill="#EC4899" />
  <text x="370" y="238" font-family="Arial" font-size="6" fill="white" font-weight="bold" text-anchor="middle">CTA</text>
  
  <!-- Central connecting elements -->
  <circle cx="250" cy="150" r="20" fill="white" opacity="0.9" />
  <text x="250" y="154" font-family="Arial" font-size="12" fill="#EC4899" font-weight="bold" text-anchor="middle">360°</text>
  
  <line x1="170" y1="90" x2="240" y2="140" stroke="white" stroke-width="2" stroke-dasharray="5 3" />
  <line x1="330" y1="90" x2="260" y2="140" stroke="white" stroke-width="2" stroke-dasharray="5 3" />
  <line x1="140" y1="200" x2="240" y2="160" stroke="white" stroke-width="2" stroke-dasharray="5 3" />
  <line x1="330" y1="200" x2="260" y2="160" stroke="white" stroke-width="2" stroke-dasharray="5 3" />
</svg>