<svg width="500" height="300" viewBox="0 0 500 300" xmlns="http://www.w3.org/2000/svg">
  <!-- Background gradient -->
  <defs>
    <linearGradient id="bgGradient" x1="0%" y1="0%" x2="100%" y2="100%">
      <stop offset="0%" stop-color="#4F46E5" />
      <stop offset="100%" stop-color="#7C3AED" />
    </linearGradient>
    <linearGradient id="shelfGradient" x1="0%" y1="0%" x2="100%" y2="0%">
      <stop offset="0%" stop-color="#7E5A4E" />
      <stop offset="100%" stop-color="#5D4037" />
    </linearGradient>
  </defs>
  
  <!-- Main background -->
  <rect width="500" height="300" fill="url(#bgGradient)" />
  
  <!-- Bookstore interior illumination -->
  <circle cx="250" cy="50" r="200" fill="white" opacity="0.1" />
  
  <!-- Bookshelf unit -->
  <rect x="50" y="80" width="400" height="180" rx="2" fill="url(#shelfGradient)" />
  
  <!-- Shelf dividers -->
  <rect x="50" y="140" width="400" height="5" fill="#4E342E" />
  <rect x="50" y="200" width="400" height="5" fill="#4E342E" />
  
  <!-- Books on top shelf -->
  <rect x="70" y="90" width="20" height="50" rx="1" fill="#EC407A" />
  <rect x="90" y="95" width="25" height="45" rx="1" fill="#42A5F5" />
  <rect x="115" y="90" width="15" height="50" rx="1" fill="#FFA726" />
  <rect x="130" y="100" width="30" height="40" rx="1" fill="#66BB6A" />
  <rect x="160" y="85" width="18" height="55" rx="1" fill="#AB47BC" />
  <rect x="178" y="90" width="22" height="50" rx="1" fill="#26C6DA" />
  <rect x="200" y="95" width="15" height="45" rx="1" fill="#EC407A" />
  
  <rect x="240" y="90" width="20" height="50" rx="1" fill="#7E57C2" />
  <rect x="260" y="95" width="25" height="45" rx="1" fill="#26A69A" />
  <rect x="285" y="85" width="15" height="55" rx="1" fill="#EF5350" />
  <rect x="300" y="90" width="30" height="50" rx="1" fill="#FFCA28" />
  <rect x="330" y="95" width="18" height="45" rx="1" fill="#5C6BC0" />
  <rect x="348" y="85" width="22" height="55" rx="1" fill="#66BB6A" />
  <rect x="370" y="90" width="15" height="50" rx="1" fill="#EC407A" />
  
  <!-- Books on middle shelf -->
  <rect x="75" y="145" width="30" height="55" rx="1" fill="#5C6BC0" />
  <rect x="105" y="155" width="20" height="45" rx="1" fill="#EF5350" />
  <rect x="125" y="150" width="15" height="50" rx="1" fill="#FFCA28" />
  <rect x="140" y="145" width="25" height="55" rx="1" fill="#7E57C2" />
  <rect x="165" y="155" width="22" height="45" rx="1" fill="#26A69A" />
  
  <rect x="220" y="145" width="15" height="55" rx="1" fill="#EC407A" />
  <rect x="235" y="150" width="20" height="50" rx="1" fill="#42A5F5" />
  <rect x="255" y="155" width="25" height="45" rx="1" fill="#FFA726" />
  <rect x="280" y="145" width="30" height="55" rx="1" fill="#66BB6A" />
  <rect x="310" y="155" width="18" height="45" rx="1" fill="#AB47BC" />
  <rect x="328" y="150" width="22" height="50" rx="1" fill="#26C6DA" />
  <rect x="350" y="145" width="15" height="55" rx="1" fill="#EC407A" />
  
  <!-- Books on bottom shelf -->
  <rect x="80" y="205" width="25" height="55" rx="1" fill="#26A69A" />
  <rect x="105" y="210" width="20" height="50" rx="1" fill="#EF5350" />
  <rect x="125" y="215" width="30" height="45" rx="1" fill="#FFCA28" />
  <rect x="155" y="205" width="15" height="55" rx="1" fill="#5C6BC0" />
  <rect x="170" y="210" width="25" height="50" rx="1" fill="#66BB6A" />
  
  <rect x="230" y="205" width="22" height="55" rx="1" fill="#26C6DA" />
  <rect x="252" y="215" width="15" height="45" rx="1" fill="#EC407A" />
  <rect x="267" y="210" width="20" height="50" rx="1" fill="#42A5F5" />
  <rect x="287" y="205" width="25" height="55" rx="1" fill="#FFA726" />
  <rect x="312" y="215" width="30" height="45" rx="1" fill="#66BB6A" />
  <rect x="342" y="205" width="18" height="55" rx="1" fill="#AB47BC" />
  <rect x="360" y="210" width="25" height="50" rx="1" fill="#26C6DA" />
  
  <!-- POS terminal -->
  <rect x="170" y="5" width="160" height="70" rx="5" fill="#263238" />
  <rect x="180" y="15" width="140" height="40" rx="2" fill="#ECEFF1" />
  
  <!-- Screen content -->
  <rect x="190" y="20" width="120" height="10" rx="1" fill="#4527A0" opacity="0.7" />
  <rect x="190" y="35" width="60" height="5" rx="1" fill="#5D4037" opacity="0.7" />
  <rect x="190" y="45" width="80" height="5" rx="1" fill="#5D4037" opacity="0.7" />
  
  <!-- Card reader -->
  <rect x="180" y="60" width="30" height="10" rx="2" fill="#455A64" />
  <rect x="182" y="62" width="26" height="2" rx="1" fill="#78909C" />
</svg>