<svg width="500" height="300" viewBox="0 0 500 300" xmlns="http://www.w3.org/2000/svg">
  <!-- Background gradient -->
  <defs>
    <linearGradient id="bgGradient" x1="0%" y1="0%" x2="100%" y2="100%">
      <stop offset="0%" stop-color="#FF4500" />
      <stop offset="100%" stop-color="#FF8717" />
    </linearGradient>
    <linearGradient id="cardGradient" x1="0%" y1="0%" x2="0%" y2="100%">
      <stop offset="0%" stop-color="#FFFFFF" />
      <stop offset="100%" stop-color="#F5F5F5" />
    </linearGradient>
  </defs>
  
  <!-- Main background -->
  <rect width="500" height="300" fill="url(#bgGradient)" />
  
  <!-- Header bar -->
  <rect x="40" y="20" width="420" height="40" rx="5" fill="#1A1A1B" />
  <circle cx="65" cy="40" r="15" fill="#FF4500" />
  <text x="65" y="45" font-family="Arial" font-size="18" fill="white" text-anchor="middle" font-weight="bold">r/</text>
  <rect x="90" y="30" width="120" height="20" rx="10" fill="#272729" />
  <text x="110" y="44" font-family="Arial" font-size="12" fill="#D7DADC" font-weight="bold">TechDiscussion</text>
  <circle cx="425" cy="40" r="12" fill="#272729" />
  <circle cx="425" cy="40" r="10" fill="#1A1A1B" stroke="#D7DADC" stroke-width="1" />
  <text x="425" y="44" font-family="Arial" font-size="12" fill="#D7DADC" text-anchor="middle">u</text>
  
  <!-- Post 1 -->
  <rect x="40" y="70" width="420" height="100" rx="5" fill="url(#cardGradient)" />
  <rect x="40" y="70" width="40" height="100" rx="5 0 0 5" fill="#F5F5F5" />
  
  <!-- Upvote/Downvote -->
  <polygon points="60,85 65,78 55,78" fill="#FF4500" />
  <text x="60" y="105" font-family="Arial" font-size="12" fill="#1A1A1B" text-anchor="middle" font-weight="bold">42</text>
  <polygon points="60,115 65,122 55,122" fill="#CCC" />
  
  <!-- Post content -->
  <text x="100" y="85" font-family="Arial" font-size="10" fill="#787C7E">Posted by u/tech_enthusiast • 3 hours ago</text>
  <text x="100" y="105" font-family="Arial" font-size="14" fill="#222222" font-weight="bold">What's your favorite productivity tool for developers?</text>
  <text x="100" y="125" font-family="Arial" font-size="12" fill="#222222">I've been trying different tools for task management and code organization. Would love to hear what works for you...</text>
  
  <!-- Post interaction bar -->
  <rect x="90" y="140" width="25" height="20" rx="3" fill="transparent" />
  <text x="105" y="155" font-family="Arial" font-size="12" fill="#878A8C">💬 28</text>
  
  <rect x="125" y="140" width="25" height="20" rx="3" fill="transparent" />
  <text x="140" y="155" font-family="Arial" font-size="12" fill="#878A8C">↗️ Share</text>
  
  <rect x="165" y="140" width="30" height="20" rx="3" fill="transparent" />
  <text x="180" y="155" font-family="Arial" font-size="12" fill="#878A8C">⭐ Save</text>
  
  <!-- Post 2 -->
  <rect x="40" y="180" width="420" height="100" rx="5" fill="url(#cardGradient)" />
  <rect x="40" y="180" width="40" height="100" rx="5 0 0 5" fill="#F5F5F5" />
  
  <!-- Upvote/Downvote -->
  <polygon points="60,195 65,188 55,188" fill="#CCC" />
  <text x="60" y="215" font-family="Arial" font-size="12" fill="#1A1A1B" text-anchor="middle" font-weight="bold">18</text>
  <polygon points="60,225 65,232 55,232" fill="#CCC" />
  
  <!-- Post content -->
  <text x="100" y="195" font-family="Arial" font-size="10" fill="#787C7E">Posted by u/javascript_dev • 5 hours ago</text>
  <text x="100" y="215" font-family="Arial" font-size="14" fill="#222222" font-weight="bold">Just released my React component library - feedback welcome!</text>
  <text x="100" y="235" font-family="Arial" font-size="12" fill="#222222">After months of work, I've just published my first open-source UI component library for React...</text>
  
  <!-- Post interaction bar -->
  <rect x="90" y="250" width="25" height="20" rx="3" fill="transparent" />
  <text x="105" y="265" font-family="Arial" font-size="12" fill="#878A8C">💬 13</text>
  
  <rect x="125" y="250" width="25" height="20" rx="3" fill="transparent" />
  <text x="140" y="265" font-family="Arial" font-size="12" fill="#878A8C">↗️ Share</text>
  
  <rect x="165" y="250" width="30" height="20" rx="3" fill="transparent" />
  <text x="180" y="265" font-family="Arial" font-size="12" fill="#878A8C">⭐ Save</text>
  
  <!-- Community sidebar -->
  <rect x="300" y="75" width="150" height="85" rx="5" fill="white" stroke="#EDEFF1" stroke-width="1" />
  <rect x="300" y="75" width="150" height="25" rx="5 5 0 0" fill="#0079D3" />
  <text x="375" y="92" font-family="Arial" font-size="12" fill="white" text-anchor="middle" font-weight="bold">COMMUNITY INFO</text>
  <text x="310" y="115" font-family="Arial" font-size="12" fill="#1A1A1B" font-weight="bold">r/TechDiscussion</text>
  <text x="310" y="135" font-family="Arial" font-size="10" fill="#1A1A1B">12.5k members • 250 online</text>
  <rect x="315" y="145" width="120" height="25" rx="15" fill="#FF4500" />
  <text x="375" y="162" font-family="Arial" font-size="12" fill="white" text-anchor="middle" font-weight="bold">JOIN</text>
  
  <!-- Rules sidebar -->
  <rect x="300" y="170" width="150" height="100" rx="5" fill="white" stroke="#EDEFF1" stroke-width="1" />
  <text x="310" y="190" font-family="Arial" font-size="12" fill="#1A1A1B" font-weight="bold">Community Rules</text>
  <line x1="310" y1="195" x2="340" y2="195" stroke="#FF4500" stroke-width="2" />
  <text x="310" y="210" font-family="Arial" font-size="10" fill="#1A1A1B">1. Be respectful</text>
  <text x="310" y="225" font-family="Arial" font-size="10" fill="#1A1A1B">2. No self-promotion</text>
  <text x="310" y="240" font-family="Arial" font-size="10" fill="#1A1A1B">3. Cite your sources</text>
  <text x="310" y="255" font-family="Arial" font-size="10" fill="#1A1A1B">4. Follow site rules</text>
</svg>