<svg xmlns="http://www.w3.org/2000/svg" width="800" height="600" viewBox="0 0 800 600">
  <rect width="800" height="600" fill="#3B82F6" />
  <g fill="#fff" transform="translate(250, 200)">
    <rect x="0" y="0" width="300" height="200" rx="10" />
    <rect x="20" y="20" width="120" height="70" rx="5" fill="#3B82F6" stroke="white" />
    <rect x="160" y="20" width="120" height="70" rx="5" fill="#3B82F6" stroke="white" />
    <rect x="20" y="110" width="260" height="70" rx="5" fill="#3B82F6" stroke="white" />
    
    <path d="M50,40 L110,40" stroke="#fff" stroke-width="4" />
    <path d="M50,55 L100,55" stroke="#fff" stroke-width="4" />
    <path d="M50,70 L90,70" stroke="#fff" stroke-width="4" />
    
    <path d="M180,40 L240,40" stroke="#fff" stroke-width="4" />
    <path d="M180,55 L230,55" stroke="#fff" stroke-width="4" />
    <path d="M180,70 L220,70" stroke="#fff" stroke-width="4" />
    
    <path d="M40,130 L100,130" stroke="#fff" stroke-width="4" />
    <path d="M40,145 L260,145" stroke="#fff" stroke-width="4" />
    <path d="M40,160 L200,160" stroke="#fff" stroke-width="4" />
  </g>
  <text x="400" y="500" font-family="Arial" font-size="32" fill="white" text-anchor="middle">BI Dashboard</text>
</svg>