<svg xmlns="http://www.w3.org/2000/svg" width="800" height="600" viewBox="0 0 800 600">
  <rect width="800" height="600" fill="#6366F1" />
  <g transform="translate(180, 100)">
    <rect x="50" y="30" width="340" height="250" rx="15" fill="white" />
    
    <!-- Dashboard header -->
    <rect x="50" y="30" width="340" height="50" rx="15" fill="#F3F4F6" />
    <circle cx="75" cy="55" r="15" fill="#6366F1" />
    <rect x="100" y="50" width="100" height="10" rx="5" fill="#9CA3AF" />
    <rect x="320" y="45" width="50" height="20" rx="5" fill="#10B981" />
    
    <!-- Left sidebar -->
    <rect x="50" y="80" width="80" height="200" fill="#F3F4F6" />
    <rect x="65" y="100" width="50" height="8" rx="4" fill="#9CA3AF" />
    <rect x="65" y="120" width="50" height="8" rx="4" fill="#9CA3AF" />
    <rect x="65" y="140" width="50" height="8" rx="4" fill="#9CA3AF" />
    <rect x="65" y="160" width="50" height="8" rx="4" fill="#9CA3AF" />
    <rect x="65" y="180" width="50" height="8" rx="4" fill="#9CA3AF" />
    <rect x="65" y="200" width="50" height="8" rx="4" fill="#9CA3AF" />
    <rect x="65" y="220" width="50" height="8" rx="4" fill="#9CA3AF" />
    <rect x="65" y="240" width="50" height="8" rx="4" fill="#9CA3AF" />
    
    <!-- Main dashboard area -->
    <rect x="140" y="90" width="240" height="80" rx="5" fill="#F9FAFB" stroke="#E5E7EB" stroke-width="1" />
    <rect x="150" y="105" width="60" height="40" rx="5" fill="#6366F1" opacity="0.2" />
    <rect x="155" y="115" width="50" height="5" rx="2.5" fill="#6366F1" />
    <rect x="155" y="125" width="30" height="5" rx="2.5" fill="#6366F1" />
    <path d="M220 105 L390 105" stroke="#E5E7EB" stroke-width="1" />
    <path d="M220 125 L390 125" stroke="#E5E7EB" stroke-width="1" />
    <path d="M220 145 L390 145" stroke="#E5E7EB" stroke-width="1" />
    <circle cx="230" cy="115" r="5" fill="#10B981" />
    <circle cx="250" cy="115" r="5" fill="#F97316" />
    <circle cx="270" cy="115" r="5" fill="#6366F1" />
    <circle cx="290" cy="115" r="5" fill="#EC4899" />
    <circle cx="310" cy="115" r="5" fill="#8B5CF6" />
    <circle cx="330" cy="115" r="5" fill="#14B8A6" />
    <circle cx="350" cy="115" r="5" fill="#F59E0B" />
    <circle cx="370" cy="115" r="5" fill="#EF4444" />
    
    <!-- Charts -->
    <rect x="140" y="180" width="110" height="80" rx="5" fill="#F9FAFB" stroke="#E5E7EB" stroke-width="1" />
    <rect x="150" y="190" width="90" height="10" rx="5" fill="#9CA3AF" />
    <!-- Bar chart -->
    <rect x="160" y="210" width="10" height="40" fill="#6366F1" />
    <rect x="180" y="220" width="10" height="30" fill="#8B5CF6" />
    <rect x="200" y="230" width="10" height="20" fill="#10B981" />
    <rect x="220" y="240" width="10" height="10" fill="#F97316" />
    
    <rect x="270" y="180" width="110" height="80" rx="5" fill="#F9FAFB" stroke="#E5E7EB" stroke-width="1" />
    <rect x="280" y="190" width="90" height="10" rx="5" fill="#9CA3AF" />
    <!-- Pie chart -->
    <path d="M325 240 L325 210 A30 30 0 0 1 350 230 Z" fill="#6366F1" />
    <path d="M325 240 L350 230 A30 30 0 0 1 325 270 Z" fill="#10B981" />
    <path d="M325 240 L325 270 A30 30 0 0 1 300 230 Z" fill="#F97316" />
    <path d="M325 240 L300 230 A30 30 0 0 1 325 210 Z" fill="#8B5CF6" />
  </g>
  
  <text x="400" y="500" font-family="Arial" font-size="32" fill="white" text-anchor="middle">BI Dashboard</text>
</svg>