<svg xmlns="http://www.w3.org/2000/svg" width="800" height="600" viewBox="0 0 800 600">
  <rect width="800" height="600" fill="#000000" />
  <g transform="translate(200, 150)">
    <rect width="400" height="300" rx="10" fill="#111" stroke="#3F3F46" stroke-width="2" />
    
    <rect x="20" y="20" width="360" height="180" rx="5" fill="#1E1E1E" stroke="#3F3F46" stroke-width="1" />
    <path d="M20,70 L380,70" stroke="#3F3F46" stroke-width="1" />
    
    <text x="30" y="50" font-family="Arial" font-size="16" fill="#FFF" text-anchor="start">BTC-USD Perpetual</text>
    <text x="370" y="50" font-family="Arial" font-size="16" fill="#10B981" text-anchor="end">$55,842.30</text>
    
    <path d="M40,150 L80,130 L120,160 L160,110 L200,140 L240,120 L280,150 L320,90 L360,110" 
          stroke="#10B981" stroke-width="2" fill="none" />
    
    <rect x="20" y="220" width="175" height="60" rx="5" fill="#111" stroke="#3F3F46" stroke-width="1" />
    <rect x="205" y="220" width="175" height="60" rx="5" fill="#111" stroke="#3F3F46" stroke-width="1" />
    
    <text x="40" y="250" font-family="Arial" font-size="14" fill="#FFFFFF" text-anchor="start">Buy Market</text>
    <text x="40" y="270" font-family="Arial" font-size="14" fill="#6B7280" text-anchor="start">0.25 BTC</text>
    
    <text x="225" y="250" font-family="Arial" font-size="14" fill="#FFFFFF" text-anchor="start">Sell Market</text>
    <text x="225" y="270" font-family="Arial" font-size="14" fill="#6B7280" text-anchor="start">0.25 BTC</text>
  </g>
  <text x="400" y="500" font-family="Arial" font-size="32" fill="white" text-anchor="middle">dYdX Trading Interface</text>
</svg>