<svg xmlns="http://www.w3.org/2000/svg" width="800" height="600" viewBox="0 0 800 600">
  <rect width="800" height="600" fill="#F97316" />
  <g transform="translate(180, 100)">
    <rect x="50" y="30" width="340" height="250" rx="15" fill="white" />
    
    <!-- SEO graph -->
    <polyline 
      points="70,240 110,180 150,200 190,130 230,150 270,90 310,80 350,60 390,50"
      fill="none"
      stroke="#F97316"
      stroke-width="4"
      stroke-linecap="round"
      stroke-linejoin="round"
    />
    
    <!-- Dots on the graph -->
    <circle cx="110" cy="180" r="5" fill="#F97316" />
    <circle cx="150" cy="200" r="5" fill="#F97316" />
    <circle cx="190" cy="130" r="5" fill="#F97316" />
    <circle cx="230" cy="150" r="5" fill="#F97316" />
    <circle cx="270" cy="90" r="5" fill="#F97316" />
    <circle cx="310" cy="80" r="5" fill="#F97316" />
    <circle cx="350" cy="60" r="5" fill="#F97316" />
    
    <!-- Area under the graph -->
    <path 
      d="M70,240 L110,180 L150,200 L190,130 L230,150 L270,90 L310,80 L350,60 L390,50 L390,240 L70,240 Z"
      fill="#F97316"
      opacity="0.2"
    />
    
    <!-- Marketing megaphone -->
    <path 
      d="M150,70 L200,50 L200,100 L150,80 Z"
      fill="#F97316"
    />
    <circle cx="150" cy="75" r="15" fill="#F97316" />
    
    <!-- Sound waves -->
    <path d="M210,60 Q220,75 210,90" stroke="#F97316" stroke-width="3" fill="none" />
    <path d="M220,50 Q240,75 220,100" stroke="#F97316" stroke-width="3" fill="none" />
    <path d="M230,40 Q260,75 230,110" stroke="#F97316" stroke-width="3" fill="none" />
    
    <!-- Target -->
    <circle cx="320" cy="75" r="25" fill="none" stroke="#9CA3AF" stroke-width="2" />
    <circle cx="320" cy="75" r="15" fill="none" stroke="#F97316" stroke-width="2" />
    <circle cx="320" cy="75" r="5" fill="#F97316" />
    
    <!-- Charts -->
    <rect x="110" y="120" width="20" height="60" fill="#F97316" opacity="0.7" rx="2" />
    <rect x="140" y="140" width="20" height="40" fill="#F97316" opacity="0.8" rx="2" />
    <rect x="170" y="130" width="20" height="50" fill="#F97316" opacity="0.9" rx="2" />
    <rect x="200" y="110" width="20" height="70" fill="#F97316" rx="2" />
  </g>
  
  <text x="400" y="500" font-family="Arial" font-size="32" fill="white" text-anchor="middle">Marketing Agency</text>
</svg>