<svg xmlns="http://www.w3.org/2000/svg" width="800" height="600" viewBox="0 0 800 600">
  <rect width="800" height="600" fill="#4F46E5" />
  <g fill="#fff" transform="translate(250, 225)">
    <path d="M60,20 L60,220 L260,220 L260,20 L60,20 Z M40,0 L280,0 L280,240 L40,240 L40,0 Z" />
    <path d="M100,60 L220,60 L220,80 L100,80 L100,60 Z" />
    <path d="M100,100 L220,100 L220,120 L100,120 L100,100 Z" />
    <path d="M100,140 L220,140 L220,160 L100,160 L100,140 Z" />
    <path d="M100,180 L160,180 L160,200 L100,200 L100,180 Z" />
  </g>
  <text x="400" y="500" font-family="Arial" font-size="32" fill="white" text-anchor="middle">Bookstore POS System</text>
</svg>